<svg xmlns="http://www.w3.org/2000/svg" viewBox="0 0 232.44 232.44"><defs><style>.cls-3{fill:#fff}</style></defs><g id="Ebene_2" data-name="Ebene 2"><g id="Logo"><rect width="226.77" height="226.77" x="5.67" y="5.67" rx="14.08" style="fill:#575756;opacity:.43"/><rect width="226.77" height="226.77" rx="14.08" style="fill:#3f245c"/><path d="M52.52 134.35H29l-.62-4.21 16.89-17.62h-7.9l-1.61 4.33-5.56-.62 1.92-9.77h22.32l.93 4.21-16.82 17.62h8.84l1.79-4.29 6.06.62ZM86.78 106.46q-.81 2.54-1.39 5a43.53 43.53 0 0 0-.9 4.94L83 128.29h3.58L86 132.8l-1.86 1.55h-8.31l-.24-5.69a13.76 13.76 0 0 1-3.53 4.45 8.46 8.46 0 0 1-5.62 1.89 7.69 7.69 0 0 1-6.87-3.47 15 15 0 0 1-2.29-8.53 23.91 23.91 0 0 1 1.36-7.73 16.76 16.76 0 0 1 4.18-6.68 10.11 10.11 0 0 1 7.33-2.72q6.06 0 7.91 5.2c.21-.78.4-1.56.59-2.32a19.77 19.77 0 0 1 .71-2.32ZM71.38 112c-2 0-3.44 1.05-4.39 3.13a16.69 16.69 0 0 0-1.42 7q0 6.81 4 6.81a5.3 5.3 0 0 0 4.33-2.41 13.07 13.07 0 0 0 2.35-5.14l.24-2.1a6.84 6.84 0 0 0-1.26-5.38 4.91 4.91 0 0 0-3.85-1.91ZM91.29 93.47l1.92-1.67h9.52l-2.35 19.36a11.3 11.3 0 0 1 3.53-3.8 9.54 9.54 0 0 1 11.34.89q2.5 2.35 1.89 7.3l-1.54 12.74h3.58l-.55 4.51-1.86 1.55h-9.52l1.91-15.71q.5-3.58-.49-5.13a3.6 3.6 0 0 0-3.28-1.55 4.9 4.9 0 0 0-4 1.67 9.65 9.65 0 0 0-1.87 4.37l-2 16.33h-7.65l4.45-36.49h-3.58ZM123.82 93.47l1.92-1.67h9.77l-4.46 36.49h3.59l-.56 4.51-1.85 1.55h-9.59l4.46-36.49h-3.84ZM149.05 128.91a6.65 6.65 0 0 0 3.21-.68 2.16 2.16 0 0 0 1.24-2c0-1.2-.73-2-2.2-2.38s-3.08-.84-4.85-1.33a16.21 16.21 0 0 1-5-2.32c-1.5-1-2.25-2.84-2.25-5.35 0-3.3 1.27-5.62 3.83-7a17.44 17.44 0 0 1 8.22-2 29 29 0 0 1 5.26.56 17.1 17.1 0 0 1 5.44 2l-.06 7.11-6.12.68-.13-3.46a13.12 13.12 0 0 0-4.39-.81 7.39 7.39 0 0 0-2.66.56 2 2 0 0 0-1.42 1.92c0 .86.54 1.46 1.61 1.79s2.49.72 4.27 1.17a24.3 24.3 0 0 1 5.62 2.35q2.85 1.62 2.85 6a7.63 7.63 0 0 1-3.59 7 15.87 15.87 0 0 1-8.53 2.23 37.06 37.06 0 0 1-6.31-.65 20.79 20.79 0 0 1-6.24-2.07l1.91-7.8 6 .68-.31 3.22a9.22 9.22 0 0 0 2.51.46c.98.09 1.67.12 2.09.12ZM164.94 134.35l.31-3.12h2.87l-.31 3.12ZM177.89 122.07a3.59 3.59 0 0 0-3.49 2 9.59 9.59 0 0 0-1 4.37 5.92 5.92 0 0 0 .76 3.23 2.7 2.7 0 0 0 2.49 1.19q2.81 0 3.89-3.58l1.7.4a7.72 7.72 0 0 1-1.82 3.39 5.11 5.11 0 0 1-4 1.56 4.84 4.84 0 0 1-3.88-1.61 6.62 6.62 0 0 1-1.38-4.45 11.16 11.16 0 0 1 .67-3.74 7.45 7.45 0 0 1 2.15-3.23 5.67 5.67 0 0 1 3.92-1.32 7 7 0 0 1 4.42 1.39l.19 3.31-1.82.22-.28-2.35a4 4 0 0 0-2.52-.78ZM185.19 113.66l.68-.58h3.83l-1.23 10a6.08 6.08 0 0 1 1.85-2 4.83 4.83 0 0 1 2.72-.74 4 4 0 0 1 3.11 1.24c.77.82 1 2.15.82 4l-.87 7h2.32l-.15 1.23-.65.53h-3.8l1-8.16a4.31 4.31 0 0 0-.47-3.17 2.57 2.57 0 0 0-2.16-1 3.47 3.47 0 0 0-2.68 1.13 5.44 5.44 0 0 0-1.34 2.55l-1 8.6H185l2.39-19.51H185Z" class="cls-3"/></g></g></svg>