<svg xmlns="http://www.w3.org/2000/svg" viewBox="0 0 340.16 86.32"><defs><style>.cls-1{fill:#3f245c;}.cls-2{fill:#575756;}</style></defs><g id="Ebene_2" data-name="Ebene 2"><g id="Logo"><path class="cls-1" d="M48.36,85.09H1.24L0,76.68,33.76,41.43H18.06l-3.22,8.66L3.71,48.85,7.54,29.31H52.19l1.86,8.41L20.41,73H38.09l3.59-8.66L53.8,65.55Z"></path><path class="cls-1" d="M116.87,29.31q-1.61,5.07-2.78,9.89a86,86,0,0,0-1.8,9.9l-3,23.87h7.17l-1.11,9-3.71,3.09H95l-.49-11.38a27.65,27.65,0,0,1-7,8.9,17,17,0,0,1-11.26,3.71q-9.15,0-13.73-6.92T57.88,62.46A47.21,47.21,0,0,1,60.6,47,33.19,33.19,0,0,1,69,33.64Q74.58,28.2,83.6,28.2q12.12,0,15.83,10.39c.41-1.57.81-3.12,1.18-4.64A41.53,41.53,0,0,1,102,29.31Zm-30.79,11q-5.94,0-8.78,6.24a33.48,33.48,0,0,0-2.85,14q0,13.6,7.92,13.6,5.07,0,8.65-4.82a25.65,25.65,0,0,0,4.7-10.26l.5-4.21Q97,48,93.68,44.15A9.78,9.78,0,0,0,86.08,40.32Z"></path><path class="cls-1" d="M125.9,3.34,129.73,0h19.05l-4.7,38.71a22.7,22.7,0,0,1,7-7.61,17.79,17.79,0,0,1,10.14-2.9,17.59,17.59,0,0,1,12.55,4.7q5,4.7,3.77,14.59L174.5,73h7.18l-1.12,9-3.71,3.09h-19l3.83-31.42q1-7.17-1-10.26c-1.32-2.06-3.51-3.09-6.55-3.09q-5.32,0-8,3.34a19,19,0,0,0-3.71,8.78l-4,32.65H123.05l8.91-73h-7.18Z"></path><path class="cls-1" d="M191,3.34,194.78,0h19.54l-8.9,73h7.17l-1.11,9-3.71,3.09H188.6l8.9-73h-7.66Z"></path><path class="cls-1" d="M241.41,74.2a13.28,13.28,0,0,0,6.43-1.36,4.28,4.28,0,0,0,2.47-4q0-3.58-4.39-4.77t-9.71-2.66a31.68,31.68,0,0,1-10-4.63q-4.51-3.15-4.52-10.7,0-9.9,7.67-13.91a34.89,34.89,0,0,1,16.45-4,58,58,0,0,1,10.51,1.11,34.11,34.11,0,0,1,10.88,4l-.12,14.22-12.24,1.36-.25-6.92a26.27,26.27,0,0,0-8.78-1.61,14.7,14.7,0,0,0-5.32,1.11,3.9,3.9,0,0,0-2.84,3.83c0,1.74,1.07,2.93,3.21,3.59s5,1.44,8.53,2.35a48.3,48.3,0,0,1,11.26,4.7q5.69,3.21,5.69,12,0,9.52-7.17,14a31.74,31.74,0,0,1-17.07,4.45A74,74,0,0,1,229.53,85,40.92,40.92,0,0,1,217,80.88l3.84-15.58,12,1.36-.62,6.43a18.41,18.41,0,0,0,5,.93C239.2,74.14,240.58,74.2,241.41,74.2Z"></path><path class="cls-2" d="M273.19,85.09l.62-6.25h5.75l-.62,6.25Z"></path><path class="cls-2" d="M299.1,60.54q-5,0-7,4.05a19.19,19.19,0,0,0-2,8.75,11.86,11.86,0,0,0,1.52,6.46,5.43,5.43,0,0,0,5,2.38q5.63,0,7.79-7.17l3.41.8a15.59,15.59,0,0,1-3.65,6.77c-1.86,2.08-4.54,3.13-8,3.13a9.67,9.67,0,0,1-7.76-3.22c-1.84-2.14-2.75-5.11-2.75-8.9a22.7,22.7,0,0,1,1.33-7.49,15,15,0,0,1,4.29-6.46A11.44,11.44,0,0,1,299,57a14,14,0,0,1,8.84,2.79l.37,6.61-3.65.44-.55-4.7A7.9,7.9,0,0,0,299.1,60.54Z"></path><path class="cls-2" d="M313.69,43.72l1.36-1.18h7.67l-2.47,20a12,12,0,0,1,3.71-4A9.56,9.56,0,0,1,329.4,57a8.09,8.09,0,0,1,6.21,2.48c1.55,1.65,2.09,4.3,1.64,8l-1.73,14.1h4.64L339.85,84l-1.3,1h-7.61l2-16.33q.56-4.45-.92-6.34a5.21,5.21,0,0,0-4.33-1.88,6.93,6.93,0,0,0-5.35,2.25,10.88,10.88,0,0,0-2.69,5.11l-2.1,17.19h-4.21l4.76-39h-4.7Z"></path></g></g></svg>